<svg width="103" height="96" viewBox="0 0 103 96" fill="none" xmlns="http://www.w3.org/2000/svg">
<path d="M1.93117 24.3264C1.76711 24.0565 1.72023 23.7396 1.79054 23.4344C1.86671 23.1292 2.0542 22.8652 2.32371 22.7008L6.75315 20.0014C7.30976 19.661 8.0363 19.8371 8.37612 20.3946L12.0263 26.3979H14.0828L9.87604 19.4791C9.03233 18.0942 7.22188 17.654 5.83914 18.4991L1.4097 21.1985C0.741773 21.6093 0.267184 22.2549 0.0855535 23.0177C-0.101936 23.7806 0.0211197 24.5729 0.431253 25.2419L1.13433 26.3979H3.19086L1.93117 24.3264Z" fill="white"/>
<path d="M14.0361 8.36444C13.831 8.5757 13.6083 8.76936 13.3505 8.92781C13.0927 9.08625 12.8174 9.20362 12.542 9.28578L22.9418 26.3921H24.9983L14.0361 8.36444Z" fill="white"/>
<path d="M12.2786 5.47722L13.0578 6.7624C13.1282 6.6333 13.1867 6.49245 13.2219 6.34574C13.3332 5.89387 13.257 5.41854 13.0168 5.01948C12.6887 4.47959 12.1087 4.1803 11.5228 4.1803C11.2122 4.1803 10.9017 4.26246 10.6146 4.43264C10.2162 4.67325 9.93497 5.06056 9.82364 5.51243C9.71232 5.96429 9.78848 6.43963 10.0287 6.83868C10.3627 7.39031 10.9544 7.68374 11.5521 7.672L10.7728 6.38682L12.2786 5.47722Z" fill="white"/>
<path d="M13.0585 6.76229L12.2792 5.47711L10.7793 6.39258L11.5586 7.67776C11.8574 7.6719 12.162 7.59561 12.4374 7.43129C12.7069 7.26111 12.912 7.03224 13.0585 6.76229Z" fill="white"/>
<path d="M9.28448 7.30223C8.52867 6.064 8.92122 4.44433 10.1633 3.68731C11.3996 2.93029 13.0167 3.32347 13.7725 4.56756C14.3643 5.54171 14.2412 6.74473 13.5616 7.5839L14.0362 8.37026C14.4698 7.92427 14.7861 7.38438 14.9326 6.76234C15.1553 5.85274 15.0088 4.90793 14.5225 4.10983C13.5147 2.45495 11.3586 1.93266 9.70634 2.93615C8.05408 3.94551 7.53263 6.11094 8.53453 7.75996C9.1966 8.84561 10.3508 9.44418 11.5344 9.44418C11.8742 9.44418 12.2081 9.39137 12.5421 9.2916L12.0617 8.49937C11.0012 8.7165 9.87625 8.27637 9.28448 7.30223Z" fill="white"/>
<path d="M13.3505 8.93354C13.6083 8.77509 13.831 8.58143 14.036 8.37017L13.5614 7.5838C13.3798 7.81267 13.1572 8.01807 12.8935 8.18238C12.6299 8.3467 12.3428 8.44059 12.0557 8.49927L12.5361 9.29151C12.8173 9.20349 13.0927 9.09198 13.3505 8.93354Z" fill="white"/>
<path d="M12.4355 7.42547C12.1601 7.59566 11.8555 7.66609 11.5566 7.67195L12.0547 8.49353C12.3418 8.43485 12.623 8.33508 12.8925 8.17663C13.1562 8.01232 13.3729 7.80693 13.5604 7.57806L13.0624 6.75647C12.9101 7.03229 12.705 7.26116 12.4355 7.42547Z" fill="white"/>
<path d="M30.3527 21.891C30.0129 21.3335 30.1887 20.6058 30.7453 20.2655L35.1748 17.566C35.4443 17.4017 35.7607 17.3547 36.0653 17.4252C36.37 17.5015 36.6278 17.6892 36.7919 17.9592L41.9185 26.392H43.975L38.2918 17.0437C37.8816 16.3747 37.2371 15.8994 36.4755 15.7175C35.7138 15.5297 34.9228 15.6529 34.2549 16.0637L29.8254 18.7632C28.4427 19.6082 28.0033 21.4215 28.847 22.8065L31.0266 26.392H33.0831L30.3527 21.891Z" fill="white"/>
<path d="M42.4638 5.94086C42.2587 6.15212 42.0302 6.33991 41.7724 6.49836C41.5146 6.65681 41.2392 6.77417 40.9639 6.85632L52.8401 26.3922H54.8967L42.4638 5.94086Z" fill="white"/>
<path d="M40.7005 3.0419L41.4797 4.32708C41.761 3.79892 41.7727 3.1358 41.4387 2.59004C41.1985 2.19099 40.8118 1.90931 40.3606 1.79781C40.22 1.7626 40.0853 1.745 39.9446 1.745C39.6282 1.745 39.3177 1.83302 39.0365 2.00321C38.6381 2.24381 38.3568 2.63112 38.2455 3.08298C38.1342 3.53485 38.2104 4.01019 38.4506 4.40924C38.7846 4.96086 39.3763 5.24841 39.9739 5.24254L39.1947 3.95738L40.7005 3.0419Z" fill="white"/>
<path d="M41.4804 4.32685L40.7011 3.04169L39.2012 3.95716L39.9804 5.24231C40.2793 5.23645 40.5839 5.16016 40.8593 4.99584C41.1347 4.83153 41.3397 4.5968 41.4804 4.32685Z" fill="white"/>
<path d="M37.7069 4.87269C36.9511 3.63446 37.3437 2.01479 38.5858 1.25777C39.8221 0.50075 41.4392 0.893931 42.195 2.13803C42.7867 3.11218 42.6637 4.31519 41.984 5.16023L42.4645 5.95247C43.5484 4.83161 43.7945 3.07696 42.9449 1.68616C42.4586 0.882192 41.6911 0.324698 40.7771 0.1017C39.8689 -0.121298 38.9256 0.0254096 38.1288 0.512484C37.332 0.999559 36.7695 1.76832 36.5468 2.68379C36.3242 3.59926 36.4707 4.53819 36.957 5.34216C37.6191 6.42781 38.7733 7.02638 39.9568 7.02638C40.2966 7.02638 40.6306 6.97357 40.9646 6.87381L40.4841 6.08157C39.4236 6.28697 38.2987 5.84684 37.7069 4.87269Z" fill="white"/>
<path d="M42.4638 5.94072L41.9833 5.1485C41.8017 5.37736 41.5791 5.58275 41.3154 5.74706C41.0517 5.91138 40.7646 6.00528 40.4775 6.06396L40.958 6.85618C41.2392 6.77403 41.5087 6.65667 41.7665 6.49822C42.0243 6.33978 42.2587 6.15198 42.4638 5.94072Z" fill="white"/>
<path d="M40.8574 4.99602C40.582 5.1662 40.2773 5.23662 39.9785 5.24249L40.4765 6.06407C40.7636 6.00538 41.0449 5.90561 41.3144 5.74717C41.578 5.58285 41.7948 5.37747 41.9823 5.1486L41.4843 4.32703C41.3378 4.59697 41.1328 4.83171 40.8574 4.99602Z" fill="white"/>
<path d="M72.6495 75.4927C72.8136 75.7627 72.8605 76.0796 72.7902 76.3847C72.7198 76.6899 72.5265 76.9481 72.257 77.1124L67.8158 79.8236C67.2592 80.1639 66.5327 79.9879 66.1929 79.4304L59.6366 68.6502H57.5801L64.693 80.3459C65.5367 81.7308 67.3471 82.1709 68.7298 81.3259L73.171 78.6147C73.8389 78.2039 74.3135 77.5584 74.501 76.7955C74.6885 76.0326 74.5655 75.2404 74.1553 74.5714L70.552 68.6443H68.4955L72.6495 75.4927Z" fill="white"/>
<path d="M59.6604 89.9935C59.8655 89.7822 60.0881 89.5886 60.3459 89.4301C60.6037 89.2717 60.8791 89.1543 61.1544 89.0722L48.7391 68.6561H46.6826L59.6604 89.9935Z" fill="white"/>
<path d="M61.4174 92.8807L60.6381 91.5955C60.5678 91.7246 60.5092 91.8655 60.474 92.0122C60.3627 92.464 60.4389 92.9394 60.6791 93.3384C60.9193 93.7375 61.306 94.0191 61.7572 94.1306C62.2142 94.2421 62.6829 94.1658 63.0814 93.9252C63.4798 93.6846 63.761 93.2973 63.8723 92.8455C63.9837 92.3936 63.9075 91.9183 63.6673 91.5192C63.3392 90.9794 62.7591 90.6801 62.1732 90.6801C62.1615 90.6801 62.1497 90.6801 62.1439 90.6801L62.929 91.9711L61.4174 92.8807Z" fill="white"/>
<path d="M60.6318 91.5955L61.4111 92.8807L62.911 91.9652L62.1259 90.6742C61.8271 90.6801 61.5224 90.7622 61.2529 90.9265C60.9892 91.0967 60.7783 91.3256 60.6318 91.5955Z" fill="white"/>
<path d="M64.4127 91.0557C65.1686 92.2939 64.776 93.9136 63.5339 94.6706C62.2976 95.4276 60.6805 95.0344 59.9247 93.7903C59.3329 92.8162 59.456 91.6131 60.1356 90.774L59.6611 89.9876C59.2334 90.4336 58.9111 90.9735 58.7646 91.5955C58.542 92.5051 58.6884 93.45 59.1748 94.2481C59.6611 95.0462 60.4286 95.6095 61.3426 95.8325C61.618 95.8971 61.8992 95.9323 62.1746 95.9323C62.8074 95.9323 63.4343 95.7562 63.9909 95.4159C64.7877 94.9288 65.3502 94.16 65.5728 93.2446C65.7955 92.335 65.649 91.3901 65.1627 90.5862C64.3131 89.1954 62.6492 88.6027 61.1551 89.0545L61.6356 89.8468C62.6961 89.6414 63.821 90.0815 64.4127 91.0557Z" fill="white"/>
<path d="M59.6602 89.9934L60.1347 90.7797C60.3164 90.5509 60.539 90.3455 60.8027 90.1812C61.0663 90.0169 61.3476 89.923 61.6346 89.8643L61.1542 89.0721C60.873 89.1542 60.6035 89.2716 60.3457 89.4301C60.0879 89.5826 59.8652 89.7763 59.6602 89.9934Z" fill="white"/>
<path d="M61.2587 90.9324C61.5341 90.7681 61.8329 90.6859 62.1317 90.68L61.6337 89.8643C61.3466 89.923 61.0654 90.0228 60.8017 90.1812C60.5381 90.3455 60.3213 90.5509 60.1338 90.7798L60.6318 91.6014C60.7783 91.3255 60.9892 91.0967 61.2587 90.9324Z" fill="white"/>
<path d="M88.0824 87.5581C88.2874 87.3469 88.5101 87.1532 88.7679 86.9948C89.0257 86.8363 89.301 86.7189 89.5764 86.6368L78.6376 68.6502H76.5811L88.0824 87.5581Z" fill="white"/>
<path d="M102.571 72.1419L100.445 68.6443H98.3881L101.072 73.0574C101.411 73.6149 101.236 74.3426 100.679 74.6829L96.2378 77.3941C95.6812 77.7345 94.9547 77.5584 94.6148 77.0009L89.5409 68.6502H87.4844L93.1149 77.9164C93.9586 79.3013 95.7691 79.7415 97.1518 78.8964L101.593 76.1852C102.976 75.346 103.415 73.5268 102.571 72.1419Z" fill="white"/>
<path d="M89.8412 90.4513L89.0619 89.1661C88.9916 89.2952 88.933 89.436 88.8979 89.5827C88.7865 90.0346 88.8627 90.5099 89.1029 90.909C89.6068 91.7364 90.6849 91.9946 91.5052 91.4958C92.3254 90.9911 92.5891 89.9172 92.0911 89.0898C91.763 88.5499 91.1829 88.2506 90.597 88.2506C90.5853 88.2506 90.5794 88.2506 90.5677 88.2506L91.3528 89.5416L89.8412 90.4513Z" fill="white"/>
<path d="M89.0537 89.166L89.833 90.4511L91.3329 89.5357L90.5478 88.2446C90.2489 88.2505 89.9443 88.3326 89.6748 88.497C89.4111 88.6613 89.2002 88.896 89.0537 89.166Z" fill="white"/>
<path d="M92.8346 88.6261C93.5905 89.8643 93.1979 91.484 91.9558 92.241C90.7137 92.998 89.1024 92.6048 88.3466 91.3607C87.7548 90.3866 87.8779 89.1836 88.5575 88.3385L88.083 87.5522C87.6494 87.9981 87.333 88.538 87.1865 89.1601C86.9639 90.0697 87.1103 91.0145 87.5966 91.8185C88.2587 92.9041 89.4129 93.5027 90.5965 93.5027C91.2175 93.5027 91.8444 93.3384 92.4128 92.9921C94.065 91.9828 94.5865 89.8232 93.5846 88.1683C92.735 86.7775 91.0711 86.1848 89.577 86.6367L90.0575 87.4289C91.1179 87.2118 92.2429 87.6519 92.8346 88.6261Z" fill="white"/>
<path d="M88.084 87.5581L88.5586 88.3445C88.7402 88.1156 88.9628 87.9102 89.2265 87.7459C89.4901 87.5816 89.7772 87.4877 90.0643 87.429L89.5839 86.6368C89.3027 86.7189 89.0331 86.8363 88.7753 86.9947C88.5117 87.1532 88.2891 87.3469 88.084 87.5581Z" fill="white"/>
<path d="M89.6826 88.497C89.9579 88.3327 90.2567 88.2506 90.5556 88.2447L90.0575 87.429C89.7704 87.4877 89.4892 87.5874 89.2197 87.7459C88.956 87.9102 88.7392 88.1156 88.5518 88.3445L89.0498 89.166C89.2021 88.8961 89.413 88.6613 89.6826 88.497Z" fill="white"/>
<path d="M10.8374 32.5245V62.8992H4.27523V32.5245H10.8374ZM13.7669 29.5903H10.8374H4.27523H1.3457V32.5245V62.8992V65.8334H4.27523H10.8374H13.7669V62.8992V32.5245V29.5903Z" fill="white"/>
<path d="M27.2892 32.0552C31.1621 32.0552 33.1014 34.1208 33.1014 38.2522V62.8993H26.5393V37.6888C26.5393 37.4365 26.4514 37.2193 26.2815 37.0315C26.1116 36.8438 25.9006 36.7499 25.6487 36.7499H23.1176C22.8657 36.7499 22.6547 36.8438 22.4848 37.0315C22.3149 37.2193 22.227 37.4365 22.227 37.6888V42.806V62.8993H15.6649V42.806V38.2522V32.0552H21.477H22.227H27.2892ZM27.2892 29.121H22.227H21.477H15.6649H12.7354V32.0552V38.2522V42.806V62.8993V65.8335H15.6649H22.227H25.1565H26.5393H33.1014H36.0309V62.8993V38.2522C36.0309 32.5305 32.7616 29.121 27.2892 29.121Z" fill="white"/>
<path d="M49.2268 32.0552C53.0996 32.0552 55.0389 34.1208 55.0389 38.2522V41.1159H48.8049V37.4541C48.8049 37.2017 48.717 36.9846 48.5471 36.7968C48.3772 36.609 48.1663 36.5151 47.9143 36.5151H44.9614C44.7094 36.5151 44.4985 36.609 44.3286 36.7968C44.1587 36.9846 44.0708 37.2017 44.0708 37.4541V42.806V57.923C44.0708 58.1753 44.1587 58.3925 44.3286 58.5802C44.4985 58.768 44.7094 58.8619 44.9614 58.8619H47.9143C48.1663 58.8619 48.3772 58.768 48.5471 58.5802C48.717 58.3925 48.8049 58.1753 48.8049 57.923V53.2283H55.0389V57.1718C55.0389 61.3032 53.0996 63.3688 49.2268 63.3688H43.3208C39.448 63.3688 37.5086 61.3032 37.5086 57.1718V42.806V38.2522V32.0552H43.3208H44.0708H49.2268ZM49.2268 29.121H44.0708H43.3208H37.5086H34.5791V32.0552V38.2522V42.806V57.1718C34.5791 62.8876 37.8484 66.303 43.3208 66.303H49.2268C54.6991 66.303 57.9685 62.8876 57.9685 57.1718V53.2283V50.2941H55.0389H48.8049H47.0003V44.0501H48.8049H55.0389H57.9685V41.1159V38.2522C57.9685 32.5305 54.6991 29.121 49.2268 29.121Z" fill="white"/>
<path d="M71.0217 32.0552C74.8945 32.0552 76.8338 34.1208 76.8338 38.2522V62.8993H70.2717V52.7119H65.5376V62.8993H58.9754V42.806V38.2522V32.0552H64.7876H65.5376H71.0217ZM65.5376 47.6416H70.2717V37.4541C70.2717 37.2017 70.1838 36.9846 70.0139 36.7968C69.844 36.609 69.633 36.5151 69.3811 36.5151H66.4281C66.1762 36.5151 65.9653 36.609 65.7954 36.7968C65.6255 36.9846 65.5376 37.2017 65.5376 37.4541V42.806V47.6416ZM71.0217 29.121H65.5376H64.7876H58.9754H56.0459V32.0552V38.2522V42.806V62.8993V65.8335H58.9754H65.5376H68.4671H70.2717H76.8338H79.7634V62.8993V38.2522C79.7634 32.5305 76.494 29.121 71.0217 29.121Z" fill="white"/>
<path d="M92.7238 32.0552C96.5967 32.0552 98.536 34.1208 98.536 38.2522V40.5056H92.302V38.1113C92.302 37.859 92.2141 37.6419 92.0442 37.4541C91.8743 37.2663 91.6634 37.1724 91.4114 37.1724H88.8334C88.5815 37.1724 88.3705 37.2663 88.2006 37.4541C88.0307 37.6419 87.9429 37.859 87.9429 38.1113V43.5102C87.9429 43.7626 88.0307 43.9797 88.2006 44.1675C88.3705 44.3553 88.5815 44.4492 88.8334 44.4492H93.052C96.9248 44.5137 98.8641 46.5794 98.8641 50.6462V57.1718C98.8641 61.3032 96.9248 63.3688 93.052 63.3688H87.521C83.6482 63.3688 81.7088 61.3032 81.7088 57.1718V54.0264H87.9429V57.4066C87.9429 57.6589 88.0307 57.876 88.2006 58.0638C88.3705 58.2516 88.5815 58.3455 88.8334 58.3455H91.7395C91.9915 58.3455 92.2024 58.2516 92.3723 58.0638C92.5422 57.876 92.6301 57.6589 92.6301 57.4066V51.4443C92.6301 51.1919 92.5422 50.9748 92.3723 50.787C92.2024 50.5992 91.9915 50.5053 91.7395 50.5053H87.521C83.6482 50.5053 81.7088 48.4397 81.7088 44.3083V42.806V38.2522V32.0552H87.521H87.8315H92.7238ZM92.7238 29.121H87.8315H87.521H81.7088H78.7793V32.0552V38.2522V42.806V44.3083C78.7793 47.2132 79.623 49.5195 81.1698 51.0922H78.7793V54.0264V57.1718C78.7793 62.8876 82.0486 66.303 87.521 66.303H93.052C98.5243 66.303 101.794 62.8876 101.794 57.1718V50.6462C101.794 47.4773 100.762 45.0067 98.8876 43.4398H101.466V40.5056V38.2522C101.466 32.5305 98.1962 29.121 92.7238 29.121Z" fill="white"/>
</svg>
